<svg width="600" height="640" viewBox="0 0 600 640" fill="none" xmlns="http://www.w3.org/2000/svg">
<mask id="mask0_16_115" style="mask-type:alpha" maskUnits="userSpaceOnUse" x="120" y="260" width="366" height="235">
<path d="M128.271 301.251L159.3 261.215C253.718 271.224 442.956 291.242 444.557 291.242C446.159 291.242 465.243 316.598 474.584 329.277C469.34 327.441 462.447 324.163 459.736 322.843C464.227 326.739 472.496 349.121 471.582 347.293C470.581 345.291 437.551 327.275 442.556 330.277C446.559 332.68 454.233 342.622 457.569 347.293L442.556 345.291C466.577 366.31 474.584 400.341 474.584 400.341C469.78 387.529 461.906 384.994 458.57 385.327C468.349 385.327 478.127 416.983 482.383 429.742C483.766 431.552 484.594 433.148 484.594 434.371C484.594 436.112 483.79 433.96 482.383 429.742C477.431 423.262 465.35 414.043 458.57 409.349C461.291 415.629 465.72 425.456 468.643 430.917C470.406 432.058 471.582 433.24 471.582 434.371C471.582 435.863 470.378 434.159 468.643 430.917C464.561 428.275 457.335 425.855 454.28 424.804C459.401 429.517 476.358 469.833 484.594 490.422C481.071 487.34 475.487 482.399 472.785 479.854C474.617 483.016 476.035 489.839 476.586 493.425L462.574 482.415C352.808 491.757 133.276 503.634 133.276 476.409C133.276 442.379 168.308 408.348 161.301 407.347C154.295 406.346 133.276 425.363 133.276 425.363C128.271 411.351 169.309 382.324 165.305 376.319C161.301 370.314 121.265 389.331 121.265 382.324C121.265 376.719 154.629 356.635 171.31 347.293H159.3C165.067 343.997 175.447 338.124 178.49 336.597C171.855 338.554 128.271 346.959 128.271 342.288C128.271 338.097 160.563 314.25 170.472 307.785C163.207 310.834 143.866 317.01 133.276 320.268C144.62 307.59 166.906 282.034 165.305 281.233C163.703 280.432 139.949 294.245 128.271 301.251Z" fill="#FEFEFE" stroke="black"/>
</mask>
<g mask="url(#mask0_16_115)">
<path d="M128.271 301.251L159.3 261.215C253.718 271.224 442.956 291.242 444.557 291.242C446.159 291.242 465.243 316.598 474.584 329.277C469.34 327.441 462.447 324.163 459.736 322.843C464.227 326.739 472.496 349.121 471.582 347.293C470.581 345.291 437.551 327.275 442.556 330.277C446.559 332.68 454.233 342.622 457.569 347.293L442.556 345.291C466.577 366.31 474.584 400.341 474.584 400.341C469.78 387.529 461.906 384.994 458.57 385.327C468.349 385.327 478.127 416.983 482.383 429.742C483.766 431.552 484.594 433.148 484.594 434.371C484.594 436.112 483.79 433.96 482.383 429.742C477.431 423.262 465.35 414.043 458.57 409.349C461.291 415.629 465.72 425.456 468.643 430.917C470.406 432.058 471.582 433.24 471.582 434.371C471.582 435.863 470.378 434.159 468.643 430.917C464.561 428.275 457.335 425.855 454.28 424.804C459.401 429.517 476.358 469.833 484.594 490.422C481.071 487.34 475.487 482.399 472.785 479.854C474.617 483.016 476.035 489.839 476.586 493.425L462.574 482.415C352.808 491.757 133.276 503.634 133.276 476.409C133.276 442.379 168.308 408.348 161.301 407.347C154.295 406.346 133.276 425.363 133.276 425.363C128.271 411.351 169.309 382.324 165.305 376.319C161.301 370.314 121.265 389.331 121.265 382.324C121.265 376.719 154.629 356.635 171.31 347.293H159.3C165.067 343.997 175.447 338.124 178.49 336.597C171.855 338.554 128.271 346.959 128.271 342.288C128.271 338.097 160.563 314.25 170.472 307.785C163.207 310.834 143.866 317.01 133.276 320.268C144.62 307.59 166.906 282.034 165.305 281.233C163.703 280.432 139.949 294.245 128.271 301.251Z" fill="#FEFEFE" stroke="black"/>
<path d="M160.3 377.32C162.703 372.516 203.339 365.976 223.357 363.307C216.952 395.336 230.03 423.362 237.37 433.371C235.769 424.563 239.372 410.35 241.374 404.344C236.569 434.772 258.723 462.397 270.4 472.406C266.516 459.976 277.391 437.121 283.832 426.325C284.018 426.003 284.212 425.683 284.413 425.363C284.223 425.672 284.03 425.993 283.832 426.325C268.245 453.21 303.536 487.396 312.438 485.418C338.061 478.211 371.491 410.35 371.491 410.35C374.694 415.154 368.822 431.035 365.486 438.375C387.506 418.357 393.511 389.331 393.511 389.331C397.515 393.334 393.511 404.344 393.511 404.344C398.516 398.339 408.525 366.31 408.525 366.31C410.527 366.31 414.53 377.32 414.53 377.32C418.534 377.32 423.538 342.288 420.536 336.283C422.938 332.279 433.547 337.951 438.552 341.287L448.561 349.295L501.609 357.302V525.454L101.247 506.437L113.258 396.337C127.938 392 157.898 382.124 160.3 377.32Z" fill="#C1C0BD" stroke="black"/>
<path d="M159.3 261.215L128.271 301.251C139.949 294.245 163.703 280.432 165.305 281.233C166.906 282.034 144.62 307.59 133.276 320.268C146.288 316.265 172.511 307.857 173.312 306.256C174.313 304.254 128.271 337.284 128.271 342.288C128.271 347.293 178.317 337.284 179.318 336.283C180.118 335.482 166.306 343.289 159.3 347.293H171.31C154.629 356.635 121.265 376.719 121.265 382.324C121.265 389.331 161.301 370.314 165.305 376.319C169.309 382.324 128.271 411.351 133.276 425.363C133.276 425.363 154.295 406.346 161.301 407.347C168.308 408.348 133.276 442.379 133.276 476.409C133.276 503.634 352.808 491.757 462.574 482.415L476.586 493.425C475.919 489.088 473.984 480.013 471.582 478.411C469.18 476.81 479.255 485.751 484.593 490.422C475.919 468.736 457.569 425.163 453.565 424.362C448.561 423.362 471.582 429.367 471.582 434.371C471.582 438.375 462.907 419.358 458.57 409.349C467.244 415.354 484.593 428.766 484.593 434.371C484.593 441.378 471.582 385.327 458.57 385.327C461.906 384.994 469.78 387.529 474.584 400.341C474.584 400.341 466.577 366.31 442.556 345.291L457.569 347.293C454.233 342.622 446.559 332.68 442.556 330.277C437.551 327.275 470.581 345.291 471.582 347.293C472.583 349.295 462.574 322.27 458.57 322.27C458.57 322.27 467.912 326.941 474.584 329.277C465.243 316.598 446.159 291.242 444.557 291.242C442.956 291.242 253.718 271.224 159.3 261.215Z" stroke="black"/>
</g>
<mask id="mask1_16_115" style="mask-type:alpha" maskUnits="userSpaceOnUse" x="89" y="1" width="406" height="357">
<path d="M233.367 33.0088C232.699 26.0024 223.558 12.5903 192.33 14.9925C192.33 14.9925 223.358 0.979821 252.384 14.9925C269.066 14.3252 303.63 14.3919 308.434 19.997C313.615 26.0415 303.152 12.717 296.968 9.58748C295.386 9.19358 294.422 8.98706 294.422 8.98706C295.109 8.84966 295.984 9.0895 296.968 9.58748C303.921 11.3177 322.818 16.663 324.449 24.0006C326.451 33.0088 322.447 7.98617 319.444 2.98165C316.442 -2.02287 345.468 12.9907 345.468 28.0043C346.469 31.007 380.5 26.0024 394.512 42.0169C403.52 36.0115 424.539 25.8023 436.55 33.0088L424.539 45.0196C444.557 65.3713 481.791 138.304 470.581 267.22C472.583 268.221 476.586 286.238 493.602 297.248C496.805 299.65 483.593 296.247 476.586 294.245C479.589 297.248 485.394 303.854 484.594 306.256C483.793 308.658 464.909 303.92 455.567 301.251C446.893 299.583 429.344 297.047 428.543 300.25C427.542 304.254 408.525 319.267 385.504 325.273C367.087 330.077 355.143 327.275 351.473 325.273C345.802 333.28 327.452 350.696 299.426 356.301C271.401 361.906 252.384 331.946 246.378 316.265C233.7 311.927 205.942 301.451 196.333 294.245C186.724 287.038 176.315 273.226 172.311 267.22C158.299 266.887 128.872 265.619 123.267 263.217C120.865 261.615 128.272 257.879 132.275 256.21C123.934 251.873 103.85 245.801 90.2373 256.21C86.2337 259.213 172.311 13.9916 233.367 33.0088Z" fill="#D9D9D9" stroke="black"/>
</mask>
<g mask="url(#mask1_16_115)">
<path d="M233.367 33.0088C232.699 26.0024 223.558 12.5903 192.33 14.9925C192.33 14.9925 223.358 0.979821 252.384 14.9925C269.066 14.3252 303.63 14.3919 308.434 19.997C313.615 26.0415 303.152 12.717 296.968 9.58748C295.386 9.19358 294.422 8.98706 294.422 8.98706C295.109 8.84966 295.984 9.0895 296.968 9.58748C303.921 11.3177 322.818 16.663 324.449 24.0006C326.451 33.0088 322.447 7.98617 319.444 2.98165C316.442 -2.02287 345.468 12.9907 345.468 28.0043C346.469 31.007 380.5 26.0024 394.512 42.0169C403.52 36.0115 424.539 25.8023 436.55 33.0088L424.539 45.0196C444.557 65.3713 481.791 138.304 470.581 267.22C472.583 268.221 476.586 286.238 493.602 297.248C496.805 299.65 483.593 296.247 476.586 294.245C479.589 297.248 485.394 303.854 484.594 306.256C483.793 308.658 464.909 303.92 455.567 301.251C446.893 299.583 429.344 297.047 428.543 300.25C427.542 304.254 408.525 319.267 385.504 325.273C367.087 330.077 355.143 327.275 351.473 325.273C345.802 333.28 327.452 350.696 299.426 356.301C271.401 361.906 252.384 331.946 246.378 316.265C233.7 311.927 205.942 301.451 196.333 294.245C186.724 287.038 176.315 273.226 172.311 267.22C158.299 266.887 128.872 265.619 123.267 263.217C120.865 261.615 128.272 257.879 132.275 256.21C123.934 251.873 103.85 245.801 90.2373 256.21C86.2337 259.213 172.311 13.9916 233.367 33.0088Z" fill="#FEFEFE"/>
<path d="M228.362 253.208C226.76 229.987 257.055 201.494 272.402 190.151C278.808 182.144 293.754 149.447 300.427 134.1C292.42 120.755 275.605 93.2632 272.402 90.0603C269.199 86.8574 243.709 93.3967 231.365 97.0667C221.356 110.078 209.545 134.501 206.342 132.098C203.139 129.696 115.927 212.504 72.2208 253.208L107.252 272.225L168.308 298.248C195.332 306.589 248.78 321.87 246.378 316.265C243.376 309.258 233.366 301.251 230.364 295.246C227.962 290.441 235.368 283.902 239.372 281.233C236.369 281.567 229.963 276.429 228.362 253.208Z" fill="#D78138"/>
<path d="M205.341 169.132C213.348 141.907 200.003 105.741 192.329 91.0612C177.916 81.4525 150.959 159.123 139.281 199.159C157.965 200.493 197.334 196.356 205.341 169.132Z" fill="#665858"/>
<path d="M228.362 104.073C231.452 109.223 214.683 128.762 206.342 135.101C199.136 133.5 187.325 67.7068 182.32 35.0106V-1.022L268.398 2.98162C280.743 7.31887 302.229 16.5939 289.417 18.9961C273.403 21.9988 274.404 57.0305 278.407 60.0332C302.429 74.4462 305.432 103.072 305.432 118.086C303.432 150.082 284.118 180.081 270.441 191.118C270.414 191.141 270.4 191.152 270.4 191.152C270.414 191.141 270.428 191.129 270.441 191.118C271.062 190.598 278.513 183.681 285.413 146.111C292.62 106.876 271.067 94.3976 259.39 93.063C249.047 95.7321 225.359 99.0685 228.362 104.073Z" fill="#C1C0BD"/>
<path d="M289.417 69.0414C297.424 73.045 305.432 100.069 306.433 114.082C307.2 124.823 294.327 125.236 286.414 124.091C283.412 106.075 279.408 105.074 269.399 96.0658C259.39 87.0577 281.41 65.0378 289.417 69.0414Z" fill="#665858"/>
<path d="M387.506 73.0449C389.107 87.458 372.159 99.0685 363.484 103.072C371.491 103.072 390.709 106.075 403.52 118.086C419.535 133.099 425.54 189.15 426.541 182.144C427.542 175.137 427.542 81.0522 405.522 70.0422C394.838 64.7001 417.942 64.2644 434.548 51.025C445.322 42.4357 444.983 23.7716 454.566 17.9952C416.532 19.6634 342.265 23.1999 349.471 24.0006C358.48 25.0015 385.504 55.0286 387.506 73.0449Z" fill="#C1C0BD"/>
<path d="M339.463 191.152C330.655 141.507 355.143 118.419 368.489 113.081C369.156 109.411 369.29 102.071 364.485 102.071C358.48 102.071 322.447 139.105 325.45 161.125C328.453 183.144 341.464 195.155 339.463 191.152Z" fill="#665858"/>
<path d="M338.462 144.109C338.462 141.577 356.478 106.075 363.484 103.072C409.926 102.271 423.539 141.106 425.54 180.142L468.579 229.186L522.628 285.237L517.624 320.268L370.491 342.288L352.474 326.274C353.475 326.941 356.878 326.474 362.483 319.267C368.088 312.061 364.152 302.252 361.482 298.248C367.488 293.244 379.499 281.834 379.499 276.229C381.501 205.164 344.467 198.158 338.462 191.152C332.456 184.145 338.462 148.113 338.462 144.109Z" fill="#D78138"/>
<path d="M377.497 144.109C356.678 140.906 355.477 180.142 357.479 200.16C356.478 205.164 372.492 226.183 374.494 224.182C376.496 222.18 380.499 225.182 384.503 226.183C388.507 227.184 402.519 255.21 411.527 244.2C420.536 233.19 429.544 236.192 433.547 234.191C437.551 232.189 463.575 272.225 469.58 264.218C475.585 256.21 464.575 124.091 458.57 109.077C453.766 97.0666 425.874 84.0549 412.528 79.0504C418.534 88.0585 428.543 173.135 426.541 180.142C424.94 185.747 418.867 186.481 415.531 185.146C411.527 172.802 398.316 147.312 377.497 144.109Z" fill="#D78138"/>
<path d="M233.367 33.0088C232.699 26.0024 223.558 12.5903 192.33 14.9925C192.33 14.9925 223.358 0.979821 252.384 14.9925C269.066 14.3252 303.63 14.3919 308.434 19.997C314.44 27.0033 299.426 7.98615 294.422 8.98706C294.422 8.98706 322.447 14.9925 324.449 24.0006C326.451 33.0088 322.447 7.98617 319.444 2.98165C316.442 -2.02287 345.468 12.9907 345.468 28.0043C346.469 31.007 380.5 26.0024 394.512 42.0169C403.52 36.0115 424.539 25.8023 436.55 33.0088L424.539 45.0196C444.557 65.3713 481.791 138.304 470.581 267.22C472.583 268.221 476.586 286.238 493.602 297.248C496.805 299.65 483.593 296.247 476.586 294.245C479.589 297.248 485.394 303.854 484.594 306.256C483.793 308.658 464.909 303.92 455.567 301.251C446.893 299.583 429.344 297.047 428.543 300.25C427.542 304.254 408.525 319.267 385.504 325.273C367.087 330.077 355.143 327.275 351.473 325.273C345.802 333.28 327.452 350.696 299.426 356.301C271.401 361.906 252.384 331.946 246.378 316.265C233.7 311.928 205.942 301.451 196.333 294.245C186.724 287.038 176.315 273.226 172.311 267.22C158.299 266.887 128.872 265.619 123.267 263.217C120.865 261.615 128.272 257.879 132.275 256.21C123.934 251.873 103.85 245.801 90.2373 256.21C86.2337 259.213 172.311 13.9916 233.367 33.0088Z" stroke="black"/>
</g>
<mask id="mask2_16_115" style="mask-type:alpha" maskUnits="userSpaceOnUse" x="400" y="40" width="153" height="248">
<path d="M438.552 115.083C435.349 103.072 412.528 78.0494 401.518 67.0395C411.127 65.438 424.873 49.0232 430.545 41.016C458.57 49.8239 495.603 72.044 510.617 82.053H497.605C514.621 102.405 549.052 143.909 550.653 147.112C552.655 151.115 550.653 177.139 550.653 192.153C550.653 204.163 537.975 225.85 531.636 235.191C530.969 221.179 529.234 196.957 527.632 212.171C525.631 231.188 496.604 237.193 492.601 254.209C489.398 267.821 495.27 281.233 498.606 286.238C459.571 277.229 450.563 242.198 446.559 232.189C442.556 222.18 442.556 130.096 438.552 115.083Z" fill="#D9D9D9" stroke="black"/>
</mask>
<g mask="url(#mask2_16_115)">
<path d="M438.552 115.083C435.349 103.072 412.528 78.0494 401.518 67.0395C411.127 65.438 424.873 49.0232 430.545 41.016C458.57 49.8239 495.603 72.044 510.617 82.053H497.605C514.621 102.405 549.052 143.909 550.653 147.112C552.655 151.115 550.653 177.139 550.653 192.153C550.653 204.163 537.975 225.85 531.636 235.191C530.969 221.179 529.234 196.957 527.632 212.171C525.631 231.188 496.604 237.193 492.601 254.209C489.398 267.821 495.27 281.233 498.606 286.238C459.571 277.229 450.563 242.198 446.559 232.189C442.556 222.18 442.556 130.096 438.552 115.083Z" fill="#C1C0BD"/>
<path d="M530.635 182.144C537.842 177.339 527.632 148.113 521.627 134.1L554.629 160.308L565.667 224.182L483.593 313.262C470.581 293.244 445.358 248.003 448.561 227.184C451.764 206.365 473.25 201.161 483.593 201.161C481.924 204.831 480.99 211.37 490.599 208.167C502.61 204.163 507.614 193.153 510.617 188.149C513.62 183.144 507.614 144.109 513.62 149.114C529.634 164.127 521.627 188.149 530.635 182.144Z" fill="#665858"/>
<path d="M414.53 62.035C414.53 68.4408 407.19 68.7077 403.52 68.0404C410.527 108.744 428.543 191.352 444.557 196.156C460.572 200.961 470.581 186.147 473.584 178.14C482.258 175.137 499.607 163.527 499.607 141.106C499.607 118.686 472.249 109.077 458.57 107.076C469.58 87.0576 414.53 54.0277 414.53 62.035Z" fill="#665858"/>
<path d="M438.552 115.083C435.349 103.072 412.528 78.0494 401.518 67.0395C411.127 65.438 424.873 49.0232 430.545 41.016C458.57 49.8239 495.603 72.044 510.617 82.053H497.605C514.621 102.405 549.052 143.909 550.653 147.112C552.655 151.115 550.653 177.139 550.653 192.153C550.653 204.163 537.975 225.85 531.636 235.191C530.969 221.179 529.234 196.957 527.632 212.171C525.631 231.188 496.604 237.193 492.601 254.209C489.398 267.821 495.27 281.233 498.606 286.238C459.571 277.229 450.563 242.198 446.559 232.189C442.556 222.18 442.556 130.096 438.552 115.083Z" stroke="black"/>
</g>
<mask id="mask3_16_115" style="mask-type:alpha" maskUnits="userSpaceOnUse" x="47" y="14" width="206" height="242">
<path d="M189.327 103.072C194.932 66.2387 233.7 55.6959 252.384 55.0286V39.0141L223.358 25.0015C210.346 26.0024 182.721 27.804 176.315 27.0033C169.909 26.2026 160.301 18.6624 156.297 14.9925C158.299 19.997 160.901 29.6057 155.296 28.0042C149.691 26.4028 137.613 34.0096 132.275 38.0132C146.288 37.6796 149.291 39.0141 149.291 39.0141C124.268 41.0159 56.2065 114.082 52.2029 127.094C48.1992 140.105 45.1965 182.144 52.2029 166.129C59.2092 150.115 59.2092 153.117 60.2101 166.129C61.0108 176.538 72.5546 188.483 78.2264 193.153V170.133C78.56 164.795 80.028 157.922 83.2309 173.135C87.2345 192.153 103.249 193.153 103.249 210.169C103.249 223.781 91.9054 245.201 86.2336 254.209C96.9099 249.871 125.069 236.393 152.293 217.175C186.324 193.153 182.32 149.114 189.327 103.072Z" fill="#C1C0BD" stroke="black"/>
</mask>
<g mask="url(#mask3_16_115)">
<path d="M189.327 103.072C194.932 66.2387 233.7 55.6959 252.384 55.0286V39.0141L223.358 25.0015C210.346 26.0024 182.721 27.804 176.315 27.0033C169.909 26.2026 160.301 18.6624 156.297 14.9925C158.299 19.997 160.901 29.6057 155.296 28.0042C149.691 26.4028 137.613 34.0096 132.275 38.0132C146.288 37.6796 149.291 39.0141 149.291 39.0141C124.268 41.0159 56.2065 114.082 52.2029 127.094C48.1992 140.105 45.1965 182.144 52.2029 166.129C59.2092 150.115 59.2092 153.117 60.2101 166.129C61.0108 176.538 72.5546 188.483 78.2264 193.153V170.133C78.56 164.795 80.028 157.922 83.2309 173.135C87.2345 192.153 103.249 193.153 103.249 210.169C103.249 223.781 91.9054 245.201 86.2336 254.209C96.9099 249.871 125.069 236.393 152.293 217.175C186.324 193.153 182.32 149.114 189.327 103.072Z" fill="#C1C0BD" stroke="black"/>
<path d="M119.822 181.143C107.811 167.53 114.817 154.785 119.822 150.115C123.679 145.11 119.822 140.106 109.813 140.106C100.683 140.106 87.4592 153.117 80.7865 163.126C78.4511 166.463 76.9831 176.138 89.7947 188.149C102.606 200.16 103.807 208.167 103.807 212.171H116.819C122.825 207.5 131.833 194.755 119.822 181.143Z" fill="#665858"/>
<path d="M107.391 85.2023L97.3818 80.1978C97.3818 80.1978 95.38 80.9485 94.3791 80.1978C90.3755 77.1951 52.3411 121.235 50.3393 129.242C45.3348 133.246 46.1975 190.151 48.1993 186.147C49.8008 182.944 54.872 165.462 57.2074 163.126C52.4031 180.742 71.6919 189.817 77.3637 195.155C78.031 184.813 72.5594 152.263 77.3637 156.267C82.1681 160.27 89.3746 143.255 92.3773 134.247C89.041 126.907 82.9688 110.825 85.371 105.22C87.7731 99.6154 100.385 94.8777 106.39 93.2096L107.391 85.2023Z" fill="#D78138"/>
<path d="M118.263 105.074C111.056 102.672 109.254 94.0639 111.256 84.0549C112.94 71.4263 139.41 53.8406 147.777 48.5721C148.564 47.926 149.401 47.403 150.292 47.0214C150.292 47.0214 149.357 47.5771 147.777 48.5721C138.654 56.0606 136.279 80.0838 136.279 92.0621C133.276 97.4003 125.469 107.476 118.263 105.074Z" fill="#665858"/>
<path d="M252.384 55.0286C233.7 55.6959 194.932 66.2387 189.327 103.072C182.32 149.114 186.324 193.153 152.293 217.175C125.069 236.393 96.9099 249.871 86.2336 254.209C91.9054 245.201 103.249 223.781 103.249 210.169C103.249 193.153 87.2345 192.153 83.2309 173.135C80.028 157.922 78.56 164.795 78.2264 170.133V193.153C72.5546 188.483 61.0108 176.538 60.2101 166.129C59.2092 153.117 59.2092 150.115 52.2029 166.129C45.1965 182.144 48.1992 140.106 52.2029 127.094C56.2065 114.082 124.268 41.0159 149.291 39.0141C149.291 39.0141 146.288 37.6796 132.275 38.0132C137.613 34.0096 149.691 26.4028 155.296 28.0042C160.901 29.6057 158.299 19.997 156.297 14.9925C160.301 18.6624 169.909 26.2026 176.315 27.0033C182.721 27.804 210.346 26.0024 223.358 25.0015L252.384 39.0141" stroke="black"/>
</g>
<rect x="232.909" y="25.7657" width="34.0308" height="42.2762" transform="rotate(2.0938 232.909 25.7657)" fill="#C1C0BD"/>
<rect x="423.006" y="44.0187" width="4.00362" height="34.6619" transform="rotate(47.343 423.006 44.0187)" fill="#C1C0BD"/>
<rect x="406.12" y="62.3398" width="4.00362" height="9.46655" transform="rotate(65.8405 406.12 62.3398)" fill="#C1C0BD"/>
<rect x="430.039" y="41.2278" width="4.00362" height="34.4337" transform="rotate(47.343 430.039 41.2278)" fill="#C1C0BD"/>
<path d="M303.443 285.977C257.611 309.782 230.071 270.107 222.031 247.294C220.02 245.971 216 244.517 216 249.278M303.443 285.977V271.099M303.443 285.977C318.184 298.21 355.506 312.757 386.865 273.082C388.875 272.091 392.695 271.495 391.89 277.05" stroke="black" stroke-width="2" stroke-linecap="round"/>
<path d="M338.108 228.884C330.199 219.92 299.88 220.396 285.71 221.754C280.767 222.772 277.405 230.922 279.778 234.996C282.744 240.089 279.778 248.239 294.608 250.276C295.596 248.239 298.562 252.313 294.608 254.35L283.733 255.369C285.71 264.537 301.528 270.649 306.471 271.667C324.267 273.705 332.835 265.895 336.13 261.481C333.165 261.821 326.442 261.685 323.278 258.425C320.115 255.165 322.619 252.313 324.267 251.294C324.926 254.35 328.221 259.24 336.13 254.35C346.017 248.239 341.074 231.94 338.108 228.884Z" fill="black"/>
<mask id="mask4_16_115" style="mask-type:alpha" maskUnits="userSpaceOnUse" x="216" y="149" width="50" height="49">
<path d="M265.395 175.137C265.395 193.379 256.194 197.157 242.375 197.157C228.555 197.157 216.351 193.379 216.351 175.137C216.351 156.895 228.555 149.114 242.375 149.114C256.194 149.114 265.395 156.895 265.395 175.137Z" fill="white"/>
</mask>
<g mask="url(#mask4_16_115)">
<path d="M265.395 175.137C265.395 193.379 256.194 197.157 242.375 197.157C228.555 197.157 216.351 193.379 216.351 175.137C216.351 156.895 228.555 149.114 242.375 149.114C256.194 149.114 265.395 156.895 265.395 175.137Z" fill="white"/>
<circle cx="243.376" cy="174.136" r="24.0217" fill="#00D0FF"/>
<path d="M251.383 177.139C251.383 183.22 246.453 188.149 240.373 188.149C234.292 188.149 229.363 183.22 229.363 177.139C229.363 171.058 234.292 166.129 240.373 166.129C246.453 166.129 251.383 171.058 251.383 177.139Z" fill="black"/>
<circle cx="240.373" cy="169.132" r="1.0009" fill="white"/>
<rect x="212.973" y="167.834" width="57.0525" height="31.0289" transform="rotate(9.71335 212.973 167.834)" fill="#C1C0BD" stroke="black"/>
<rect x="218.377" y="136.264" width="57.0525" height="31.0289" transform="rotate(9.71335 218.377 136.264)" fill="#C1C0BD" stroke="black"/>
</g>
<mask id="mask5_16_115" style="mask-type:alpha" maskUnits="userSpaceOnUse" x="359" y="168" width="51" height="47">
<ellipse cx="384.503" cy="191.152" rx="25.0226" ry="23.0208" fill="white"/>
</mask>
<g mask="url(#mask5_16_115)">
<ellipse cx="384.503" cy="191.152" rx="25.0226" ry="23.0208" fill="white"/>
<ellipse cx="383.502" cy="191.152" rx="22.0199" ry="25.0226" fill="#00D0FF"/>
<circle cx="382.501" cy="193.153" r="11.0099" fill="black"/>
<circle cx="384.503" cy="185.146" r="1.0009" fill="white"/>
<rect x="357.103" y="187.852" width="57.0525" height="31.0289" transform="rotate(9.71335 357.103 187.852)" fill="#C1C0BD" stroke="black"/>
<rect x="362.507" y="156.282" width="57.0525" height="31.0289" transform="rotate(9.71335 362.507 156.282)" fill="#C1C0BD" stroke="black"/>
</g>
<path d="M423.518 366.216L457.569 474.408L388.465 445.473L368.435 366.216C366.766 361.183 364.028 349.106 366.432 341.055C368.836 333.003 376.113 335.184 379.452 337.281C388.265 328.223 397.145 333.506 400.483 337.281C399.482 330.99 419.512 334.765 423.518 341.055C426.723 346.087 424.853 359.925 423.518 366.216Z" fill="#C1C0BD" stroke="black"/>
<path d="M386.505 443.38L445.558 447.383L456.568 475.409L392.51 461.396L386.505 443.38Z" fill="#C1C0BD"/>
<ellipse cx="374.533" cy="348.929" rx="4.00362" ry="6.00543" transform="rotate(-10.6343 374.533 348.929)" fill="#FE9598"/>
<ellipse cx="390.432" cy="344.862" rx="4.00362" ry="6.00543" transform="rotate(-9.36765 390.432 344.862)" fill="#FE9598"/>
<ellipse cx="410.94" cy="346.475" rx="4.00362" ry="6.00543" transform="rotate(2.71595 410.94 346.475)" fill="#FE9598"/>
<circle cx="395.856" cy="374.661" r="14.0127" transform="rotate(-10.6343 395.856 374.661)" fill="#FE9598"/>
<path d="M191.349 372.221L157.298 480.413L226.402 451.478L246.432 372.221C248.101 367.189 250.838 355.112 248.435 347.06C246.031 339.009 238.754 341.189 235.415 343.286C226.602 334.228 217.722 339.512 214.384 343.286C215.385 336.996 195.355 340.77 191.349 347.06C188.144 352.092 190.014 365.931 191.349 372.221Z" fill="#C1C0BD" stroke="black"/>
<path d="M228.362 449.385L169.308 453.389L158.298 481.414L222.356 467.401L228.362 449.385Z" fill="#C1C0BD"/>
<ellipse cx="201.338" cy="354.299" rx="4.00362" ry="6.00543" fill="#FE9598"/>
<ellipse cx="222.634" cy="351.058" rx="4.00362" ry="6.00543" transform="rotate(13.3502 222.634 351.058)" fill="#FE9598"/>
<ellipse cx="240.65" cy="353.059" rx="4.00362" ry="6.00543" transform="rotate(13.3502 240.65 353.059)" fill="#FE9598"/>
<ellipse cx="217.352" cy="378.321" rx="14.0127" ry="14.0127" fill="#FE9598"/>
</svg>
