<svg width="600" height="640" viewBox="0 0 600 640" fill="none" xmlns="http://www.w3.org/2000/svg">
<g clip-path="url(#clip0_16_186)">
<mask id="mask0_16_186" style="mask-type:alpha" maskUnits="userSpaceOnUse" x="120" y="258" width="365" height="235">
<path d="M128.185 298.928L159.18 258.935C253.496 268.934 442.53 288.93 444.13 288.93C445.73 288.93 464.793 314.259 474.125 326.924C468.886 325.09 462 321.815 459.292 320.497C463.778 324.389 472.038 346.747 471.125 344.92C470.125 342.921 437.131 324.924 442.13 327.923C446.129 330.323 453.795 340.255 457.128 344.92L442.13 342.921C466.126 363.917 474.125 397.911 474.125 397.911C469.325 385.113 461.46 382.58 458.127 382.914C467.895 382.914 477.663 414.536 481.915 427.28C483.297 429.088 484.123 430.683 484.123 431.905C484.123 433.644 483.32 431.494 481.915 427.28C476.968 420.808 464.9 411.599 458.127 406.91C460.846 413.183 465.27 422.999 468.189 428.454C469.95 429.594 471.125 430.775 471.125 431.905C471.125 433.395 469.922 431.693 468.189 428.454C464.112 425.816 456.894 423.398 453.842 422.348C458.958 427.056 475.896 467.329 484.123 487.895C480.604 484.817 475.026 479.881 472.327 477.339C474.157 480.498 475.573 487.313 476.124 490.895L462.127 479.897C352.479 489.229 133.184 501.093 133.184 473.898C133.184 439.904 168.178 405.91 161.179 404.91C154.181 403.91 133.184 422.907 133.184 422.907C128.185 408.909 169.178 379.914 165.179 373.915C161.179 367.916 121.186 386.913 121.186 379.914C121.186 374.315 154.514 354.252 171.178 344.92H159.18C164.941 341.628 175.31 335.761 178.35 334.236C171.722 336.191 128.185 344.587 128.185 339.921C128.185 335.735 160.442 311.913 170.34 305.455C163.083 308.501 143.763 314.67 133.184 317.925C144.516 305.261 166.778 279.732 165.179 278.932C163.579 278.132 139.85 291.93 128.185 298.928Z" fill="#FEFEFE" stroke="black"/>
</mask>
<g mask="url(#mask0_16_186)">
<path d="M128.185 298.928L159.18 258.935C253.496 268.934 442.53 288.93 444.13 288.93C445.73 288.93 464.793 314.259 474.125 326.924C468.886 325.09 462 321.815 459.292 320.497C463.778 324.389 472.038 346.747 471.125 344.92C470.125 342.921 437.131 324.924 442.13 327.923C446.129 330.323 453.795 340.255 457.128 344.92L442.13 342.921C466.126 363.917 474.125 397.911 474.125 397.911C469.325 385.113 461.46 382.58 458.127 382.914C467.895 382.914 477.663 414.536 481.915 427.28C483.297 429.088 484.123 430.683 484.123 431.905C484.123 433.644 483.32 431.494 481.915 427.28C476.968 420.808 464.9 411.599 458.127 406.91C460.846 413.183 465.27 422.999 468.189 428.454C469.95 429.594 471.125 430.775 471.125 431.905C471.125 433.395 469.922 431.693 468.189 428.454C464.112 425.816 456.894 423.398 453.842 422.348C458.958 427.056 475.896 467.329 484.123 487.895C480.604 484.817 475.026 479.881 472.327 477.339C474.157 480.498 475.573 487.313 476.124 490.895L462.127 479.897C352.479 489.229 133.184 501.093 133.184 473.898C133.184 439.904 168.178 405.91 161.179 404.91C154.181 403.91 133.184 422.907 133.184 422.907C128.185 408.909 169.178 379.914 165.179 373.915C161.179 367.916 121.186 386.913 121.186 379.914C121.186 374.315 154.514 354.252 171.178 344.92H159.18C164.941 341.628 175.31 335.761 178.35 334.236C171.722 336.191 128.185 344.587 128.185 339.921C128.185 335.735 160.442 311.913 170.34 305.455C163.083 308.501 143.763 314.67 133.184 317.925C144.516 305.261 166.778 279.732 165.179 278.932C163.579 278.132 139.85 291.93 128.185 298.928Z" fill="#FEFEFE" stroke="black"/>
<path d="M160.18 374.915C162.579 370.116 203.172 363.584 223.168 360.918C216.77 392.912 229.834 420.907 237.166 430.905C235.566 422.107 239.166 407.909 241.165 401.91C236.366 432.305 258.496 459.9 270.16 469.899C266.28 457.483 277.144 434.652 283.577 423.867C283.764 423.546 283.957 423.226 284.158 422.907C283.969 423.215 283.775 423.535 283.577 423.867C268.008 450.724 303.261 484.872 312.153 482.896C337.748 475.698 371.143 407.909 371.143 407.909C374.342 412.709 368.476 428.572 365.144 435.904C387.14 415.908 393.139 386.913 393.139 386.913C397.138 390.912 393.139 401.91 393.139 401.91C398.138 395.911 408.136 363.917 408.136 363.917C410.136 363.917 414.135 374.915 414.135 374.915C418.134 374.915 423.134 339.921 420.134 333.922C422.534 329.923 433.132 335.589 438.131 338.921L448.129 346.92L501.12 354.919V522.889L101.19 503.893L113.188 393.912C127.852 389.579 157.78 379.714 160.18 374.915Z" fill="#C1C0BD" stroke="black"/>
<path d="M159.18 258.935L128.185 298.928C139.85 291.93 163.579 278.132 165.179 278.932C166.778 279.732 144.516 305.261 133.184 317.925C146.182 313.926 172.377 305.527 173.177 303.928C174.177 301.928 128.185 334.922 128.185 339.921C128.185 344.92 178.176 334.922 179.176 333.922C179.976 333.122 166.178 340.921 159.18 344.92H171.178C154.514 354.252 121.186 374.315 121.186 379.914C121.186 386.913 161.179 367.916 165.179 373.915C169.178 379.914 128.185 408.909 133.184 422.907C133.184 422.907 154.181 403.91 161.179 404.91C168.178 405.91 133.184 439.904 133.184 473.898C133.184 501.093 352.479 489.229 462.127 479.897L476.124 490.895C475.458 486.562 473.525 477.497 471.125 475.898C468.725 474.298 478.79 483.23 484.123 487.895C475.458 466.233 457.128 422.707 453.128 421.907C448.129 420.907 471.125 426.906 471.125 431.905C471.125 435.905 462.46 416.908 458.127 406.91C466.792 412.909 484.123 426.306 484.123 431.905C484.123 438.904 471.125 382.914 458.127 382.914C461.46 382.58 469.325 385.113 474.125 397.911C474.125 397.911 466.126 363.917 442.13 342.921L457.128 344.92C453.795 340.255 446.129 330.323 442.13 327.923C437.131 324.924 470.125 342.921 471.125 344.92C472.125 346.92 462.127 319.925 458.127 319.925C458.127 319.925 467.459 324.591 474.125 326.924C464.793 314.259 445.73 288.93 444.13 288.93C442.53 288.93 253.496 268.934 159.18 258.935Z" stroke="black"/>
</g>
<mask id="mask1_16_186" style="mask-type:alpha" maskUnits="userSpaceOnUse" x="89" y="-1" width="406" height="357">
<path d="M233.167 30.9753C232.5 23.9766 223.368 10.5789 192.174 12.9785C192.174 12.9785 223.168 -1.01908 252.163 12.9785C268.827 12.3119 303.354 12.3786 308.154 17.9776C313.329 24.0156 302.877 10.7055 296.7 7.5793C295.119 7.18583 294.156 6.97952 294.156 6.97952C294.842 6.84227 295.717 7.08186 296.7 7.5793C303.645 9.30762 322.522 14.6472 324.151 21.9769C326.15 30.9753 322.151 5.97972 319.152 0.980591C316.152 -4.01854 345.147 10.9788 345.147 25.9762C346.147 28.9757 380.141 23.9766 394.138 39.9738C403.137 33.9748 424.133 23.7766 436.131 30.9753L424.133 42.9732C444.13 63.303 481.323 136.157 470.125 264.934C472.125 265.934 476.124 283.931 493.121 294.929C496.321 297.329 483.123 293.929 476.124 291.93C479.124 294.929 484.923 301.528 484.123 303.928C483.323 306.327 464.46 301.595 455.128 298.928C446.463 297.262 428.932 294.729 428.133 297.929C427.133 301.928 408.136 316.925 385.14 322.924C366.743 327.723 354.812 324.924 351.146 322.924C345.48 330.923 327.15 348.32 299.155 353.919C271.16 359.518 252.163 329.59 246.164 313.926C233.5 309.593 205.771 299.128 196.173 291.93C186.575 284.731 176.177 270.933 172.177 264.934C158.18 264.601 128.785 263.335 123.186 260.935C120.786 259.335 128.185 255.603 132.184 253.936C123.852 249.604 103.789 243.538 90.1917 253.936C86.1924 256.936 172.177 11.9787 233.167 30.9753Z" fill="#D9D9D9" stroke="black"/>
</mask>
<g mask="url(#mask1_16_186)">
<path d="M233.167 30.9753C232.5 23.9766 223.368 10.5789 192.174 12.9785C192.174 12.9785 223.168 -1.01908 252.163 12.9785C268.827 12.3119 303.354 12.3786 308.154 17.9776C313.329 24.0156 302.877 10.7055 296.7 7.5793C295.119 7.18583 294.156 6.97952 294.156 6.97952C294.842 6.84227 295.717 7.08186 296.7 7.5793C303.645 9.30762 322.522 14.6472 324.151 21.9769C326.15 30.9753 322.151 5.97972 319.152 0.980591C316.152 -4.01854 345.147 10.9788 345.147 25.9762C346.147 28.9757 380.141 23.9766 394.138 39.9738C403.137 33.9748 424.133 23.7766 436.131 30.9753L424.133 42.9732C444.13 63.303 481.323 136.157 470.125 264.934C472.125 265.934 476.124 283.931 493.121 294.929C496.321 297.329 483.123 293.929 476.124 291.93C479.124 294.929 484.923 301.528 484.123 303.928C483.323 306.327 464.46 301.595 455.128 298.928C446.463 297.262 428.932 294.729 428.133 297.929C427.133 301.928 408.136 316.925 385.14 322.924C366.743 327.723 354.812 324.924 351.146 322.924C345.48 330.923 327.15 348.32 299.155 353.919C271.16 359.518 252.163 329.59 246.164 313.926C233.5 309.593 205.771 299.128 196.173 291.93C186.575 284.731 176.177 270.933 172.177 264.934C158.18 264.601 128.785 263.335 123.186 260.935C120.786 259.335 128.185 255.603 132.184 253.936C123.852 249.604 103.789 243.538 90.1917 253.936C86.1924 256.936 172.177 11.9787 233.167 30.9753Z" fill="#FEFEFE"/>
<path d="M228.168 250.937C226.568 227.741 256.829 199.279 272.16 187.948C278.559 179.949 293.49 147.288 300.155 131.958C292.156 118.627 275.359 91.1648 272.16 87.9654C268.96 84.7659 243.498 91.2981 231.167 94.9642C221.169 107.962 209.371 132.358 206.171 129.958C202.972 127.558 115.854 210.277 72.1949 250.937L107.189 269.934L168.178 295.929C195.173 304.261 248.564 319.525 246.164 313.926C243.165 306.927 233.167 298.928 230.167 292.93C227.768 288.13 235.166 281.598 239.166 278.932C236.166 279.265 229.767 274.133 228.168 250.937Z" fill="#D78138"/>
<path d="M205.172 166.952C213.17 139.756 199.839 103.629 192.174 88.9652C177.776 79.3668 150.848 156.953 139.183 196.946C157.847 198.279 197.173 194.147 205.172 166.952Z" fill="#665858"/>
<path d="M228.168 101.963C231.254 107.107 214.503 126.625 206.171 132.957C198.973 131.358 187.175 65.6359 182.176 32.9749V-3.01877L268.161 0.980532C280.492 5.31311 301.955 14.5782 289.157 16.9777C273.16 19.9772 274.16 54.9711 278.159 57.9706C302.155 72.368 305.154 100.963 305.154 115.96C303.157 147.922 283.864 177.889 270.202 188.914C270.174 188.937 270.16 188.948 270.16 188.948C270.174 188.937 270.188 188.925 270.202 188.914C270.821 188.395 278.265 181.485 285.158 143.956C292.356 104.762 270.827 92.2979 259.162 90.9648C248.831 93.631 225.168 96.9637 228.168 101.963Z" fill="#C1C0BD"/>
<path d="M289.157 66.9691C297.155 70.9684 305.154 97.9637 306.154 111.961C306.92 122.691 294.061 123.103 286.157 121.959C283.158 103.963 279.159 102.963 269.16 93.9644C259.162 84.9659 281.158 62.9698 289.157 66.9691Z" fill="#665858"/>
<path d="M387.14 70.9683C388.739 85.3658 371.809 96.9637 363.144 100.963C371.142 100.963 390.339 103.963 403.137 115.96C419.134 130.958 425.133 186.948 426.133 179.949C427.133 172.95 427.133 78.9669 405.137 67.9688C394.464 62.6324 417.543 62.1972 434.131 48.9721C444.893 40.3921 444.555 21.7481 454.128 15.9779C416.135 17.6443 341.948 21.177 349.146 21.9769C358.145 22.9767 385.14 52.9714 387.14 70.9683Z" fill="#C1C0BD"/>
<path d="M339.148 188.948C330.35 139.356 354.812 116.294 368.143 110.961C368.81 107.295 368.943 99.9633 364.144 99.9633C358.145 99.9633 322.151 136.957 325.151 158.953C328.15 180.949 341.148 192.947 339.148 188.948Z" fill="#665858"/>
<path d="M338.148 141.956C338.148 139.427 356.145 103.963 363.144 100.963C409.536 100.163 423.133 138.956 425.133 177.95L468.126 226.941L522.116 282.931L517.117 317.925L370.143 339.921L352.146 323.924C353.146 324.591 356.545 324.124 362.144 316.925C367.743 309.727 363.81 299.928 361.144 295.929C367.143 290.93 379.141 279.532 379.141 273.933C381.141 202.945 344.147 195.946 338.148 188.948C332.149 181.949 338.148 145.955 338.148 141.956Z" fill="#D78138"/>
<path d="M377.141 141.956C356.345 138.756 355.145 177.95 357.145 197.946C356.145 202.945 372.142 223.942 374.142 221.942C376.142 219.942 380.141 222.942 384.14 223.942C388.14 224.941 402.137 252.936 411.136 241.938C420.134 230.94 429.132 233.94 433.132 231.94C437.131 229.941 463.126 269.934 469.125 261.935C475.124 253.936 464.126 121.959 458.127 106.962C453.328 94.9641 425.466 81.9664 412.135 76.9673C418.134 85.9657 428.133 170.951 426.133 177.95C424.533 183.549 418.468 184.282 415.135 182.949C411.136 170.618 397.938 145.155 377.141 141.956Z" fill="#D78138"/>
<path d="M233.167 30.9753C232.5 23.9766 223.368 10.5789 192.174 12.9785C192.174 12.9785 223.168 -1.01908 252.163 12.9785C268.827 12.3119 303.354 12.3786 308.154 17.9776C314.152 24.9764 299.155 5.9797 294.156 6.97952C294.156 6.97952 322.151 12.9785 324.151 21.9769C326.15 30.9753 322.151 5.97972 319.152 0.980591C316.152 -4.01854 345.147 10.9788 345.147 25.9762C346.147 28.9757 380.141 23.9766 394.138 39.9738C403.137 33.9748 424.133 23.7766 436.131 30.9753L424.133 42.9732C444.13 63.303 481.323 136.157 470.125 264.934C472.125 265.934 476.124 283.931 493.121 294.929C496.321 297.329 483.123 293.929 476.124 291.93C479.124 294.929 484.923 301.528 484.123 303.928C483.323 306.327 464.46 301.595 455.128 298.928C446.463 297.262 428.932 294.729 428.133 297.929C427.133 301.928 408.136 316.925 385.14 322.924C366.743 327.723 354.812 324.924 351.146 322.924C345.48 330.923 327.15 348.32 299.155 353.919C271.16 359.518 252.163 329.59 246.164 313.926C233.5 309.593 205.771 299.128 196.173 291.93C186.575 284.731 176.177 270.933 172.177 264.934C158.18 264.601 128.785 263.335 123.186 260.935C120.786 259.335 128.185 255.603 132.184 253.936C123.852 249.604 103.789 243.538 90.1917 253.936C86.1924 256.936 172.177 11.9787 233.167 30.9753Z" stroke="black"/>
</g>
<mask id="mask2_16_186" style="mask-type:alpha" maskUnits="userSpaceOnUse" x="400" y="38" width="152" height="247">
<path d="M438.131 112.961C434.931 100.963 412.135 75.9674 401.137 64.9694C410.736 63.3696 424.467 46.9725 430.132 38.9739C458.127 47.7724 495.121 69.9685 510.118 79.9667H497.121C514.118 100.297 548.512 141.756 550.111 144.955C552.111 148.955 550.111 174.95 550.111 189.947C550.111 201.945 537.447 223.608 531.115 232.94C530.448 218.942 528.715 194.747 527.115 209.944C525.116 228.941 496.121 234.94 492.121 251.937C488.922 265.534 494.788 278.932 498.12 283.931C459.127 274.933 450.129 239.939 446.129 229.941C442.13 219.942 442.13 127.958 438.131 112.961Z" fill="#D9D9D9" stroke="black"/>
</mask>
<g mask="url(#mask2_16_186)">
<path d="M438.131 112.961C434.931 100.963 412.135 75.9674 401.137 64.9694C410.736 63.3696 424.467 46.9725 430.132 38.9739C458.127 47.7724 495.121 69.9685 510.118 79.9667H497.121C514.118 100.297 548.512 141.756 550.111 144.955C552.111 148.955 550.111 174.95 550.111 189.947C550.111 201.945 537.447 223.608 531.115 232.94C530.448 218.942 528.715 194.747 527.115 209.944C525.116 228.941 496.121 234.94 492.121 251.937C488.922 265.534 494.788 278.932 498.12 283.931C459.127 274.933 450.129 239.939 446.129 229.941C442.13 219.942 442.13 127.958 438.131 112.961Z" fill="#C1C0BD"/>
<path d="M530.115 179.949C537.313 175.15 527.115 145.955 521.116 131.958L554.083 158.137L565.109 221.942L483.123 310.926C470.125 290.93 444.93 245.738 448.129 224.941C451.329 204.145 472.791 198.946 483.123 198.946C481.457 202.612 480.523 209.144 490.122 205.945C502.12 201.945 507.119 190.947 510.118 185.948C513.118 180.949 507.119 141.956 513.118 146.955C529.115 161.952 521.116 185.948 530.115 179.949Z" fill="#665858"/>
<path d="M414.135 59.9702C414.135 66.3691 406.803 66.6357 403.137 65.9692C410.136 106.629 428.133 189.148 444.13 193.947C460.127 198.746 470.125 183.949 473.125 175.95C481.79 172.95 499.12 161.352 499.12 138.956C499.12 116.56 471.792 106.962 458.127 104.962C469.125 84.9659 414.135 51.9716 414.135 59.9702Z" fill="#665858"/>
<path d="M438.131 112.961C434.931 100.963 412.135 75.9674 401.137 64.9694C410.736 63.3696 424.467 46.9725 430.132 38.9739C458.127 47.7724 495.121 69.9685 510.118 79.9667H497.121C514.118 100.297 548.512 141.756 550.111 144.955C552.111 148.955 550.111 174.95 550.111 189.947C550.111 201.945 537.447 223.608 531.115 232.94C530.448 218.942 528.715 194.747 527.115 209.944C525.116 228.941 496.121 234.94 492.121 251.937C488.922 265.534 494.788 278.932 498.12 283.931C459.127 274.933 450.129 239.939 446.129 229.941C442.13 219.942 442.13 127.958 438.131 112.961Z" stroke="black"/>
</g>
<mask id="mask3_16_186" style="mask-type:alpha" maskUnits="userSpaceOnUse" x="47" y="12" width="206" height="241">
<path d="M189.174 100.963C194.773 64.1695 233.5 53.638 252.163 52.9714V36.9742L223.168 22.9767C210.171 23.9765 182.576 25.7762 176.177 24.9764C169.778 24.1765 160.179 16.6445 156.18 12.9785C158.18 17.9776 160.779 27.5759 155.18 25.9762C149.581 24.3765 137.517 31.9751 132.184 35.9744C146.182 35.6411 149.181 36.9742 149.181 36.9742C124.186 38.9739 56.1976 111.961 52.1983 124.959C48.199 137.957 45.1996 179.949 52.1983 163.952C59.1971 147.955 59.1971 150.954 60.1969 163.952C60.9968 174.35 72.5281 186.281 78.1938 190.947V167.951C78.5271 162.619 79.9935 155.753 83.1929 170.951C87.1922 189.947 103.189 190.947 103.189 207.944C103.189 221.542 91.8581 242.938 86.1924 251.937C96.8572 247.604 124.986 234.14 152.181 214.943C186.175 190.947 182.176 146.955 189.174 100.963Z" fill="#C1C0BD" stroke="black"/>
</mask>
<g mask="url(#mask3_16_186)">
<path d="M189.174 100.963C194.773 64.1695 233.5 53.638 252.163 52.9714V36.9742L223.168 22.9767C210.171 23.9765 182.576 25.7762 176.177 24.9764C169.778 24.1765 160.179 16.6445 156.18 12.9785C158.18 17.9776 160.779 27.5759 155.18 25.9762C149.581 24.3765 137.517 31.9751 132.184 35.9744C146.182 35.6411 149.181 36.9742 149.181 36.9742C124.186 38.9739 56.1976 111.961 52.1983 124.959C48.199 137.957 45.1996 179.949 52.1983 163.952C59.1971 147.955 59.1971 150.954 60.1969 163.952C60.9968 174.35 72.5281 186.281 78.1938 190.947V167.951C78.5271 162.619 79.9935 155.753 83.1929 170.951C87.1922 189.947 103.189 190.947 103.189 207.944C103.189 221.542 91.8581 242.938 86.1924 251.937C96.8572 247.604 124.986 234.14 152.181 214.943C186.175 190.947 182.176 146.955 189.174 100.963Z" fill="#C1C0BD" stroke="black"/>
<path d="M119.745 178.949C107.747 165.352 114.745 152.621 119.745 147.955C123.597 142.956 119.745 137.957 109.746 137.957C100.626 137.957 87.4168 150.954 80.7513 160.953C78.4184 164.285 76.952 173.95 89.7498 185.948C102.548 197.946 103.747 205.945 103.747 209.944H116.745C122.744 205.278 131.742 192.547 119.745 178.949Z" fill="#665858"/>
<path d="M107.327 83.1126L97.3285 78.1135C97.3285 78.1135 95.3289 78.8634 94.3291 78.1135C90.3298 75.114 52.3364 119.106 50.3368 127.105C45.3376 131.104 46.1994 187.948 48.1991 183.949C49.7988 180.749 54.8646 163.285 57.1975 160.953C52.3983 178.549 71.6664 187.615 77.332 192.947C77.9986 182.615 72.5329 150.101 77.332 154.1C82.1312 158.099 89.3299 141.102 92.3294 132.104C88.9967 124.772 82.9311 108.708 85.3306 103.109C87.7302 97.5101 100.328 92.7776 106.327 91.1112L107.327 83.1126Z" fill="#D78138"/>
<path d="M118.187 102.963C110.988 100.563 109.188 91.9646 111.188 81.9664C112.87 69.3514 139.311 51.7846 147.669 46.5218C148.455 45.8764 149.292 45.354 150.181 44.9728C150.181 44.9728 149.248 45.5279 147.669 46.5218C138.556 54.0023 136.184 77.9996 136.184 89.965C133.184 95.2974 125.385 105.362 118.187 102.963Z" fill="#665858"/>
<path d="M252.163 52.9714C233.5 53.638 194.773 64.1695 189.174 100.963C182.176 146.955 186.175 190.947 152.181 214.943C124.986 234.14 96.8572 247.604 86.1924 251.937C91.8581 242.938 103.189 221.542 103.189 207.944C103.189 190.947 87.1922 189.948 83.1929 170.951C79.9935 155.753 78.5271 162.619 78.1938 167.951V190.947C72.5281 186.281 60.9968 174.35 60.1969 163.952C59.1971 150.954 59.1971 147.955 52.1983 163.952C45.1996 179.949 48.199 137.957 52.1983 124.959C56.1976 111.961 124.186 38.9739 149.181 36.9742C149.181 36.9742 146.182 35.6411 132.184 35.9744C137.517 31.9751 149.581 24.3765 155.18 25.9762C160.779 27.5759 158.18 17.9776 156.18 12.9785C160.179 16.6445 169.778 24.1765 176.177 24.9764C182.576 25.7762 210.171 23.9765 223.168 22.9767L252.163 36.9742" stroke="black"/>
</g>
<rect x="232.71" y="23.7401" width="33.9941" height="42.2306" transform="rotate(2.0938 232.71 23.7401)" fill="#C1C0BD"/>
<rect x="422.602" y="41.9734" width="3.9993" height="34.6245" transform="rotate(47.343 422.602 41.9734)" fill="#C1C0BD"/>
<rect x="405.734" y="60.2747" width="3.9993" height="9.45634" transform="rotate(65.8405 405.734 60.2747)" fill="#C1C0BD"/>
<rect x="429.627" y="39.1855" width="3.9993" height="34.3966" transform="rotate(47.343 429.627 39.1855)" fill="#C1C0BD"/>
<path d="M302.946 283.977C257.374 307.782 229.991 268.107 221.996 245.294C219.998 243.971 216 242.517 216 247.278M302.946 283.977V269.099M302.946 283.977C317.603 296.21 354.714 310.757 385.894 271.082C387.893 270.091 391.691 269.495 390.891 275.05" stroke="black" stroke-width="2" stroke-linecap="round"/>
<path d="M338.046 226.73C330.011 217.941 299.212 218.407 284.816 219.739C279.795 220.738 276.38 228.727 278.79 232.722C281.803 237.715 278.79 245.704 293.855 247.702C294.86 245.704 297.873 249.699 293.855 251.696L282.808 252.695C284.816 261.683 300.886 267.675 305.907 268.674C323.985 270.671 332.69 263.015 336.037 258.687C333.024 259.02 326.195 258.887 322.981 255.691C319.767 252.495 322.311 249.699 323.985 248.7C324.655 251.696 328.003 256.49 336.037 251.696C346.081 245.704 341.059 229.726 338.046 226.73Z" fill="black"/>
<mask id="mask4_16_186" style="mask-type:alpha" maskUnits="userSpaceOnUse" x="216" y="146" width="50" height="49">
<path d="M265.161 172.951C265.161 191.173 255.97 194.947 242.165 194.947C228.36 194.947 216.17 191.173 216.17 172.951C216.17 154.728 228.36 146.955 242.165 146.955C255.97 146.955 265.161 154.728 265.161 172.951Z" fill="white"/>
</mask>
<g mask="url(#mask4_16_186)">
<path d="M265.161 172.951C265.161 191.173 255.97 194.947 242.165 194.947C228.36 194.947 216.17 191.173 216.17 172.951C216.17 154.728 228.36 146.955 242.165 146.955C255.97 146.955 265.161 154.728 265.161 172.951Z" fill="white"/>
<circle cx="243.165" cy="171.951" r="23.9958" fill="#6F3A01"/>
<path d="M253.164 171.95C253.164 178.024 248.24 182.948 242.165 182.948C236.091 182.948 231.167 178.024 231.167 171.95C231.167 165.876 236.091 160.952 242.165 160.952C248.24 160.952 253.164 165.876 253.164 171.95Z" fill="black"/>
<circle cx="244.165" cy="163.952" r="0.999825" fill="white"/>
</g>
<mask id="mask5_16_186" style="mask-type:alpha" maskUnits="userSpaceOnUse" x="359" y="165" width="51" height="47">
<ellipse cx="384.14" cy="188.948" rx="24.9956" ry="22.996" fill="white"/>
</mask>
<g mask="url(#mask5_16_186)">
<ellipse cx="384.14" cy="188.948" rx="24.9956" ry="22.996" fill="white"/>
<ellipse cx="383.141" cy="188.948" rx="21.9962" ry="24.9956" fill="#00D0FF"/>
<circle cx="382.141" cy="190.947" r="10.9981" fill="black"/>
<circle cx="384.14" cy="182.949" r="0.999825" fill="white"/>
</g>
<path d="M423.113 363.823L457.128 471.898L388.098 442.994L368.09 363.823C366.422 358.796 363.688 346.732 366.089 338.689C368.49 330.646 375.76 332.825 379.094 334.919C387.898 325.871 396.769 331.149 400.103 334.919C399.103 328.636 419.111 332.406 423.113 338.689C426.314 343.716 424.447 357.539 423.113 363.823Z" fill="#C1C0BD" stroke="black"/>
<path d="M386.14 440.904L445.13 444.903L456.128 472.898L392.139 458.9L386.14 440.904Z" fill="#C1C0BD"/>
<ellipse cx="374.181" cy="346.555" rx="3.9993" ry="5.99895" transform="rotate(-10.6343 374.181 346.555)" fill="#FE9598"/>
<ellipse cx="390.063" cy="342.492" rx="3.9993" ry="5.99895" transform="rotate(-9.36765 390.063 342.492)" fill="#FE9598"/>
<ellipse cx="410.548" cy="344.103" rx="3.9993" ry="5.99895" transform="rotate(2.71595 410.548 344.103)" fill="#FE9598"/>
<circle cx="395.481" cy="372.259" r="13.9976" transform="rotate(-10.6343 395.481 372.259)" fill="#FE9598"/>
<path d="M191.195 369.822L157.18 477.897L226.209 448.993L246.218 369.822C247.885 364.795 250.62 352.731 248.219 344.688C245.818 336.645 238.548 338.823 235.213 340.918C226.409 331.87 217.539 337.148 214.204 340.918C215.205 334.635 195.196 338.405 191.195 344.688C187.993 349.715 189.861 363.538 191.195 369.822Z" fill="#C1C0BD" stroke="black"/>
<path d="M228.168 446.903L169.178 450.902L158.18 478.897L222.169 464.899L228.168 446.903Z" fill="#C1C0BD"/>
<ellipse cx="201.172" cy="351.919" rx="3.9993" ry="5.99895" fill="#FE9598"/>
<ellipse cx="222.446" cy="348.681" rx="3.9993" ry="5.99895" transform="rotate(13.3502 222.446 348.681)" fill="#FE9598"/>
<ellipse cx="240.443" cy="350.681" rx="3.9993" ry="5.99895" transform="rotate(13.3502 240.443 350.681)" fill="#FE9598"/>
<circle cx="217.169" cy="375.915" r="13.9976" fill="#FE9598"/>
</g>
<defs>
<clipPath id="clip0_16_186">
<rect width="600" height="640" fill="white"/>
</clipPath>
</defs>
</svg>
