<svg width="600" height="640" viewBox="0 0 600 640" fill="none" xmlns="http://www.w3.org/2000/svg">
<mask id="mask0_16_383" style="mask-type:alpha" maskUnits="userSpaceOnUse" x="120" y="260" width="365" height="235">
<path d="M128.185 300.928L159.18 260.935C253.496 270.934 442.53 290.93 444.13 290.93C445.73 290.93 464.793 316.259 474.125 328.924C468.886 327.09 462 323.815 459.292 322.497C463.778 326.389 472.038 348.747 471.125 346.92C470.125 344.921 437.131 326.924 442.13 329.923C446.129 332.323 453.795 342.255 457.128 346.92L442.13 344.921C466.126 365.917 474.125 399.911 474.125 399.911C469.325 387.113 461.46 384.58 458.127 384.914C467.895 384.914 477.663 416.536 481.915 429.28C483.297 431.088 484.123 432.683 484.123 433.905C484.123 435.644 483.32 433.494 481.915 429.28C476.968 422.808 464.9 413.599 458.127 408.91C460.846 415.183 465.27 424.999 468.189 430.454C469.95 431.594 471.125 432.775 471.125 433.905C471.125 435.395 469.922 433.693 468.189 430.454C464.112 427.815 456.894 425.398 453.842 424.348C458.958 429.056 475.896 469.329 484.123 489.895C480.604 486.817 475.026 481.881 472.327 479.339C474.157 482.498 475.573 489.313 476.124 492.895L462.127 481.897C352.479 491.228 133.184 503.093 133.184 475.898C133.184 441.904 168.178 407.91 161.179 406.91C154.18 405.91 133.184 424.907 133.184 424.907C128.185 410.909 169.178 381.914 165.179 375.915C161.179 369.916 121.186 388.913 121.186 381.914C121.186 376.315 154.514 356.252 171.178 346.92H159.18C164.941 343.628 175.309 337.761 178.35 336.236C171.722 338.191 128.185 346.587 128.185 341.921C128.185 337.735 160.442 313.913 170.34 307.455C163.083 310.501 143.763 316.67 133.184 319.925C144.516 307.261 166.778 281.732 165.179 280.932C163.579 280.132 139.85 293.93 128.185 300.928Z" fill="#FEFEFE" stroke="black"/>
</mask>
<g mask="url(#mask0_16_383)">
<path d="M128.185 300.928L159.18 260.935C253.496 270.934 442.53 290.93 444.13 290.93C445.73 290.93 464.793 316.259 474.125 328.924C468.886 327.09 462 323.815 459.292 322.497C463.778 326.389 472.038 348.747 471.125 346.92C470.125 344.921 437.131 326.924 442.13 329.923C446.129 332.323 453.795 342.255 457.128 346.92L442.13 344.921C466.126 365.917 474.125 399.911 474.125 399.911C469.325 387.113 461.46 384.58 458.127 384.914C467.895 384.914 477.663 416.536 481.915 429.28C483.297 431.088 484.123 432.683 484.123 433.905C484.123 435.644 483.32 433.494 481.915 429.28C476.968 422.808 464.9 413.599 458.127 408.91C460.846 415.183 465.27 424.999 468.189 430.454C469.95 431.594 471.125 432.775 471.125 433.905C471.125 435.395 469.922 433.693 468.189 430.454C464.112 427.815 456.894 425.398 453.842 424.348C458.958 429.056 475.896 469.329 484.123 489.895C480.604 486.817 475.026 481.881 472.327 479.339C474.157 482.498 475.573 489.313 476.124 492.895L462.127 481.897C352.479 491.228 133.184 503.093 133.184 475.898C133.184 441.904 168.178 407.91 161.179 406.91C154.18 405.91 133.184 424.907 133.184 424.907C128.185 410.909 169.178 381.914 165.179 375.915C161.179 369.916 121.186 388.913 121.186 381.914C121.186 376.315 154.514 356.252 171.178 346.92H159.18C164.941 343.628 175.309 337.761 178.35 336.236C171.722 338.191 128.185 346.587 128.185 341.921C128.185 337.735 160.442 313.913 170.34 307.455C163.083 310.501 143.763 316.67 133.184 319.925C144.516 307.261 166.778 281.732 165.179 280.932C163.579 280.132 139.85 293.93 128.185 300.928Z" fill="#FEFEFE" stroke="black"/>
<path d="M160.179 376.915C162.579 372.116 203.172 365.584 223.168 362.918C216.77 394.912 229.834 422.907 237.166 432.905C235.566 424.107 239.166 409.909 241.165 403.91C236.366 434.305 258.496 461.9 270.16 471.899C266.28 459.483 277.144 436.652 283.577 425.867C283.764 425.546 283.957 425.226 284.158 424.907C283.969 425.215 283.775 425.535 283.577 425.867C268.007 452.724 303.261 486.872 312.153 484.896C337.748 477.698 371.143 409.909 371.143 409.909C374.342 414.709 368.476 430.572 365.144 437.905C387.14 417.908 393.139 388.913 393.139 388.913C397.138 392.912 393.139 403.91 393.139 403.91C398.138 397.912 408.136 365.917 408.136 365.917C410.136 365.917 414.135 376.915 414.135 376.915C418.134 376.915 423.133 341.921 420.134 335.922C422.534 331.923 433.132 337.589 438.131 340.921L448.129 348.92L501.12 356.919V524.889L101.19 505.893L113.188 395.912C127.852 391.579 157.78 381.714 160.179 376.915Z" fill="#C1C0BD" stroke="black"/>
<path d="M159.18 260.935L128.185 300.928C139.85 293.93 163.579 280.132 165.179 280.932C166.778 281.732 144.516 307.261 133.184 319.925C146.182 315.926 172.377 307.527 173.177 305.928C174.177 303.928 128.185 336.922 128.185 341.921C128.185 346.92 178.176 336.922 179.176 335.922C179.976 335.122 166.178 342.921 159.18 346.92H171.178C154.514 356.252 121.186 376.315 121.186 381.914C121.186 388.913 161.179 369.916 165.179 375.915C169.178 381.914 128.185 410.909 133.184 424.907C133.184 424.907 154.18 405.91 161.179 406.91C168.178 407.91 133.184 441.904 133.184 475.898C133.184 503.093 352.479 491.228 462.127 481.897L476.124 492.895C475.458 488.562 473.525 479.497 471.125 477.897C468.726 476.298 478.79 485.23 484.123 489.895C475.458 468.233 457.128 424.707 453.128 423.907C448.129 422.907 471.125 428.906 471.125 433.905C471.125 437.904 462.46 418.908 458.127 408.91C466.793 414.909 484.123 428.306 484.123 433.905C484.123 440.904 471.125 384.914 458.127 384.914C461.46 384.58 469.325 387.113 474.125 399.911C474.125 399.911 466.126 365.917 442.13 344.921L457.128 346.92C453.795 342.255 446.129 332.323 442.13 329.923C437.131 326.924 470.125 344.921 471.125 346.92C472.125 348.92 462.127 321.925 458.127 321.925C458.127 321.925 467.459 326.591 474.125 328.924C464.793 316.259 445.73 290.93 444.13 290.93C442.53 290.93 253.496 270.934 159.18 260.935Z" stroke="black"/>
</g>
<mask id="mask1_16_383" style="mask-type:alpha" maskUnits="userSpaceOnUse" x="89" y="1" width="406" height="357">
<path d="M233.167 32.9753C232.5 25.9766 223.368 12.5789 192.174 14.9785C192.174 14.9785 223.168 0.980922 252.163 14.9785C268.827 14.3119 303.354 14.3786 308.154 19.9776C313.329 26.0156 302.877 12.7055 296.7 9.5793C295.119 9.18583 294.156 8.97952 294.156 8.97952C294.842 8.84227 295.717 9.08186 296.7 9.5793C303.645 11.3076 322.522 16.6472 324.151 23.9769C326.15 32.9753 322.151 7.97972 319.152 2.98059C316.152 -2.01854 345.147 12.9788 345.147 27.9762C346.147 30.9757 380.141 25.9766 394.139 41.9738C403.137 35.9748 424.133 25.7766 436.131 32.9753L424.133 44.9732C444.13 65.303 481.323 138.157 470.125 266.934C472.125 267.934 476.124 285.931 493.121 296.929C496.321 299.329 483.123 295.929 476.124 293.93C479.124 296.929 484.923 303.528 484.123 305.928C483.323 308.327 464.46 303.595 455.128 300.928C446.463 299.262 428.932 296.729 428.133 299.929C427.133 303.928 408.136 318.925 385.14 324.924C366.743 329.723 354.812 326.924 351.146 324.924C345.48 332.923 327.15 350.32 299.155 355.919C271.16 361.518 252.163 331.59 246.164 315.926C233.5 311.593 205.771 301.128 196.173 293.93C186.575 286.731 176.177 272.933 172.177 266.934C158.18 266.601 128.785 265.335 123.186 262.935C120.786 261.335 128.185 257.603 132.184 255.936C123.852 251.604 103.789 245.538 90.1917 255.936C86.1924 258.936 172.177 13.9787 233.167 32.9753Z" fill="#D9D9D9" stroke="black"/>
</mask>
<g mask="url(#mask1_16_383)">
<path d="M233.167 32.9753C232.5 25.9766 223.368 12.5789 192.174 14.9785C192.174 14.9785 223.168 0.980922 252.163 14.9785C268.827 14.3119 303.354 14.3786 308.154 19.9776C313.329 26.0156 302.877 12.7055 296.7 9.5793C295.119 9.18583 294.156 8.97952 294.156 8.97952C294.842 8.84227 295.717 9.08186 296.7 9.5793C303.645 11.3076 322.522 16.6472 324.151 23.9769C326.15 32.9753 322.151 7.97972 319.152 2.98059C316.152 -2.01854 345.147 12.9788 345.147 27.9762C346.147 30.9757 380.141 25.9766 394.139 41.9738C403.137 35.9748 424.133 25.7766 436.131 32.9753L424.133 44.9732C444.13 65.303 481.323 138.157 470.125 266.934C472.125 267.934 476.124 285.931 493.121 296.929C496.321 299.329 483.123 295.929 476.124 293.93C479.124 296.929 484.923 303.528 484.123 305.928C483.323 308.327 464.46 303.595 455.128 300.928C446.463 299.262 428.932 296.729 428.133 299.929C427.133 303.928 408.136 318.925 385.14 324.924C366.743 329.723 354.812 326.924 351.146 324.924C345.48 332.923 327.15 350.32 299.155 355.919C271.16 361.518 252.163 331.59 246.164 315.926C233.5 311.593 205.771 301.128 196.173 293.93C186.575 286.731 176.177 272.933 172.177 266.934C158.18 266.601 128.785 265.335 123.186 262.935C120.786 261.335 128.185 257.603 132.184 255.936C123.852 251.604 103.789 245.538 90.1917 255.936C86.1924 258.936 172.177 13.9787 233.167 32.9753Z" fill="#FEFEFE"/>
<path d="M228.168 252.937C226.568 229.741 256.829 201.279 272.16 189.948C278.559 181.949 293.489 149.288 300.155 133.958C292.156 120.627 275.359 93.1648 272.16 89.9654C268.96 86.7659 243.498 93.2981 231.167 96.9641C221.169 109.962 209.371 134.358 206.171 131.958C202.972 129.558 115.854 212.277 72.1948 252.937L107.189 271.934L168.178 297.929C195.173 306.261 248.564 321.525 246.164 315.926C243.165 308.927 233.167 300.928 230.167 294.93C227.768 290.13 235.166 283.598 239.166 280.932C236.166 281.265 229.767 276.133 228.168 252.937Z" fill="#D78138"/>
<path d="M205.172 168.952C213.17 141.756 199.839 105.629 192.174 90.9652C177.776 81.3669 150.848 158.953 139.183 198.946C157.847 200.279 197.173 196.147 205.172 168.952Z" fill="#665858"/>
<path d="M228.168 103.963C231.254 109.107 214.503 128.625 206.171 134.957C198.973 133.358 187.175 67.6359 182.176 34.9749V-1.01877L268.161 2.98053C280.492 7.31311 301.955 16.5782 289.157 18.9777C273.16 21.9772 274.16 56.9711 278.159 59.9706C302.155 74.368 305.154 102.963 305.154 117.96C303.156 149.922 283.864 179.889 270.202 190.914C270.174 190.937 270.16 190.948 270.16 190.948C270.174 190.937 270.188 190.925 270.202 190.914C270.821 190.395 278.264 183.485 285.158 145.956C292.356 106.762 270.827 94.2979 259.162 92.9648C248.831 95.631 225.168 98.9638 228.168 103.963Z" fill="#C1C0BD"/>
<path d="M289.157 68.9691C297.156 72.9684 305.154 99.9637 306.154 113.961C306.92 124.691 294.061 125.103 286.157 123.959C283.158 105.963 279.159 104.963 269.16 95.9644C259.162 86.966 281.158 64.9698 289.157 68.9691Z" fill="#665858"/>
<path d="M387.14 72.9683C388.739 87.3658 371.809 98.9637 363.144 102.963C371.143 102.963 390.339 105.963 403.137 117.96C419.134 132.958 425.133 188.948 426.133 181.949C427.133 174.95 427.133 80.9669 405.137 69.9688C394.464 64.6324 417.543 64.1972 434.132 50.9721C444.894 42.3921 444.555 23.7481 454.128 17.9779C416.135 19.6443 341.948 23.177 349.146 23.9769C358.145 24.9767 385.14 54.9714 387.14 72.9683Z" fill="#C1C0BD"/>
<path d="M339.148 190.948C330.35 141.356 354.812 118.294 368.143 112.961C368.81 109.295 368.943 101.963 364.144 101.963C358.145 101.963 322.151 138.957 325.151 160.953C328.15 182.949 341.148 194.947 339.148 190.948Z" fill="#665858"/>
<path d="M338.148 143.956C338.148 141.427 356.145 105.963 363.144 102.963C409.536 102.163 423.133 140.956 425.133 179.95L468.126 228.941L522.116 284.931L517.117 319.925L370.143 341.921L352.146 325.924C353.146 326.591 356.545 326.124 362.144 318.925C367.743 311.727 363.81 301.928 361.144 297.929C367.143 292.93 379.141 281.532 379.141 275.933C381.141 204.945 344.147 197.946 338.148 190.948C332.149 183.949 338.148 147.955 338.148 143.956Z" fill="#D78138"/>
<path d="M377.142 143.956C356.345 140.756 355.145 179.95 357.145 199.946C356.145 204.945 372.142 225.942 374.142 223.942C376.142 221.942 380.141 224.942 384.14 225.942C388.14 226.941 402.137 254.937 411.136 243.938C420.134 232.94 429.132 235.94 433.132 233.94C437.131 231.941 463.126 271.934 469.125 263.935C475.124 255.936 464.126 123.959 458.127 108.962C453.328 96.9641 425.466 83.9664 412.135 78.9673C418.134 87.9657 428.133 172.951 426.133 179.95C424.533 185.549 418.468 186.282 415.135 184.949C411.136 172.618 397.938 147.155 377.142 143.956Z" fill="#D78138"/>
<path d="M233.167 32.9753C232.5 25.9766 223.368 12.5789 192.174 14.9785C192.174 14.9785 223.168 0.980922 252.163 14.9785C268.827 14.3119 303.354 14.3786 308.154 19.9776C314.153 26.9764 299.155 7.9797 294.156 8.97952C294.156 8.97952 322.151 14.9785 324.151 23.9769C326.15 32.9753 322.151 7.97972 319.152 2.98059C316.152 -2.01854 345.147 12.9788 345.147 27.9762C346.147 30.9757 380.141 25.9766 394.139 41.9738C403.137 35.9748 424.133 25.7766 436.131 32.9753L424.133 44.9732C444.13 65.303 481.323 138.157 470.125 266.934C472.125 267.934 476.124 285.931 493.121 296.929C496.321 299.329 483.123 295.929 476.124 293.93C479.124 296.929 484.923 303.528 484.123 305.928C483.323 308.327 464.46 303.595 455.128 300.928C446.463 299.262 428.932 296.729 428.133 299.929C427.133 303.928 408.136 318.925 385.14 324.924C366.743 329.723 354.812 326.924 351.146 324.924C345.48 332.923 327.15 350.32 299.155 355.919C271.16 361.518 252.163 331.59 246.164 315.926C233.5 311.593 205.771 301.128 196.173 293.93C186.575 286.731 176.177 272.933 172.177 266.934C158.18 266.601 128.785 265.335 123.186 262.935C120.786 261.335 128.185 257.603 132.184 255.936C123.852 251.604 103.789 245.538 90.1917 255.936C86.1924 258.936 172.177 13.9787 233.167 32.9753Z" stroke="black"/>
</g>
<mask id="mask2_16_383" style="mask-type:alpha" maskUnits="userSpaceOnUse" x="400" y="40" width="152" height="247">
<path d="M438.131 114.961C434.931 102.963 412.135 77.9674 401.137 66.9693C410.736 65.3696 424.467 48.9725 430.132 40.9739C458.127 49.7723 495.121 71.9685 510.118 81.9667H497.121C514.118 102.296 548.512 143.756 550.111 146.955C552.111 150.955 550.111 176.95 550.111 191.947C550.111 203.945 537.447 225.608 531.115 234.94C530.448 220.942 528.715 196.747 527.115 211.944C525.116 230.941 496.121 236.94 492.121 253.937C488.922 267.534 494.788 280.932 498.12 285.931C459.127 276.933 450.129 241.939 446.129 231.94C442.13 221.942 442.13 129.958 438.131 114.961Z" fill="#D9D9D9" stroke="black"/>
</mask>
<g mask="url(#mask2_16_383)">
<path d="M438.131 114.961C434.931 102.963 412.135 77.9674 401.137 66.9693C410.736 65.3696 424.467 48.9725 430.132 40.9739C458.127 49.7723 495.121 71.9685 510.118 81.9667H497.121C514.118 102.296 548.512 143.756 550.111 146.955C552.111 150.955 550.111 176.95 550.111 191.947C550.111 203.945 537.447 225.608 531.115 234.94C530.448 220.942 528.715 196.747 527.115 211.944C525.116 230.941 496.121 236.94 492.121 253.937C488.922 267.534 494.788 280.932 498.12 285.931C459.127 276.933 450.129 241.939 446.129 231.94C442.13 221.942 442.13 129.958 438.131 114.961Z" fill="#C1C0BD"/>
<path d="M530.115 181.949C537.314 177.15 527.115 147.955 521.116 133.958L554.083 160.137L565.109 223.942L483.123 312.926C470.125 292.93 444.93 247.738 448.129 226.941C451.329 206.145 472.791 200.946 483.123 200.946C481.457 204.612 480.523 211.144 490.122 207.945C502.12 203.945 507.119 192.947 510.118 187.948C513.118 182.949 507.119 143.956 513.118 148.955C529.115 163.952 521.116 187.948 530.115 181.949Z" fill="#665858"/>
<path d="M414.135 61.9702C414.135 68.3691 406.803 68.6357 403.137 67.9692C410.136 108.629 428.133 191.148 444.13 195.947C460.127 200.746 470.125 185.949 473.125 177.95C481.79 174.95 499.12 163.353 499.12 140.956C499.12 118.56 471.792 108.962 458.127 106.962C469.125 86.9659 414.135 53.9716 414.135 61.9702Z" fill="#665858"/>
<path d="M438.131 114.961C434.931 102.963 412.135 77.9674 401.137 66.9693C410.736 65.3696 424.467 48.9725 430.132 40.9739C458.127 49.7723 495.121 71.9685 510.118 81.9667H497.121C514.118 102.296 548.512 143.756 550.111 146.955C552.111 150.955 550.111 176.95 550.111 191.947C550.111 203.945 537.447 225.608 531.115 234.94C530.448 220.942 528.715 196.747 527.115 211.944C525.116 230.941 496.121 236.94 492.121 253.937C488.922 267.534 494.788 280.932 498.12 285.931C459.127 276.933 450.129 241.939 446.129 231.94C442.13 221.942 442.13 129.958 438.131 114.961Z" stroke="black"/>
</g>
<mask id="mask3_16_383" style="mask-type:alpha" maskUnits="userSpaceOnUse" x="47" y="14" width="206" height="241">
<path d="M189.174 102.963C194.773 66.1695 233.5 55.638 252.163 54.9714V38.9742L223.168 24.9767C210.171 25.9765 182.576 27.7762 176.177 26.9764C169.778 26.1765 160.179 18.6445 156.18 14.9785C158.18 19.9776 160.779 29.5759 155.18 27.9762C149.581 26.3765 137.517 33.9751 132.184 37.9744C146.182 37.6411 149.181 38.9742 149.181 38.9742C124.186 40.9739 56.1976 113.961 52.1983 126.959C48.199 139.957 45.1996 181.949 52.1983 165.952C59.1971 149.955 59.1971 152.954 60.1969 165.952C60.9968 176.35 72.5281 188.281 78.1938 192.947V169.951C78.5271 164.619 79.9935 157.753 83.1929 172.951C87.1922 191.948 103.189 192.947 103.189 209.944C103.189 223.542 91.8581 244.938 86.1924 253.937C96.8572 249.604 124.986 236.14 152.181 216.943C186.175 192.947 182.176 148.955 189.174 102.963Z" fill="#C1C0BD" stroke="black"/>
</mask>
<g mask="url(#mask3_16_383)">
<path d="M189.174 102.963C194.773 66.1695 233.5 55.638 252.163 54.9714V38.9742L223.168 24.9767C210.171 25.9765 182.576 27.7762 176.177 26.9764C169.778 26.1765 160.179 18.6445 156.18 14.9785C158.18 19.9776 160.779 29.5759 155.18 27.9762C149.581 26.3765 137.517 33.9751 132.184 37.9744C146.182 37.6411 149.181 38.9742 149.181 38.9742C124.186 40.9739 56.1976 113.961 52.1983 126.959C48.199 139.957 45.1996 181.949 52.1983 165.952C59.1971 149.955 59.1971 152.954 60.1969 165.952C60.9968 176.35 72.5281 188.281 78.1938 192.947V169.951C78.5271 164.619 79.9935 157.753 83.1929 172.951C87.1922 191.948 103.189 192.947 103.189 209.944C103.189 223.542 91.8581 244.938 86.1924 253.937C96.8572 249.604 124.986 236.14 152.181 216.943C186.175 192.947 182.176 148.955 189.174 102.963Z" fill="#C1C0BD" stroke="black"/>
<path d="M119.744 180.949C107.747 167.352 114.745 154.621 119.744 149.955C123.597 144.956 119.744 139.957 109.746 139.957C100.626 139.957 87.4168 152.954 80.7513 162.953C78.4184 166.285 76.9519 175.95 89.7497 187.948C102.547 199.946 103.747 207.945 103.747 211.944H116.745C122.744 207.278 131.742 194.547 119.744 180.949Z" fill="#665858"/>
<path d="M107.327 85.1126L97.3285 80.1135C97.3285 80.1135 95.3289 80.8634 94.329 80.1135C90.3297 77.114 52.3364 121.106 50.3367 129.105C45.3376 133.104 46.1994 189.948 48.199 185.949C49.7988 182.749 54.8645 165.286 57.1975 162.953C52.3983 180.55 71.6663 189.615 77.332 194.947C77.9986 184.615 72.5329 152.101 77.332 156.1C82.1312 160.1 89.3299 143.102 92.3294 134.104C88.9966 126.772 82.931 110.708 85.3306 105.109C87.7302 99.5101 100.328 94.7776 106.327 93.1112L107.327 85.1126Z" fill="#D78138"/>
<path d="M118.187 104.963C110.988 102.563 109.188 93.9646 111.188 83.9664C112.87 71.3514 139.311 53.7846 147.669 48.5218C148.455 47.8765 149.292 47.354 150.181 46.9728C150.181 46.9728 149.248 47.5279 147.669 48.5218C138.556 56.0023 136.184 79.9996 136.184 91.965C133.184 97.2974 125.386 107.362 118.187 104.963Z" fill="#665858"/>
<path d="M252.163 54.9714C233.5 55.638 194.773 66.1695 189.174 102.963C182.176 148.955 186.175 192.947 152.181 216.943C124.986 236.14 96.8572 249.604 86.1924 253.937C91.8581 244.938 103.189 223.542 103.189 209.944C103.189 192.947 87.1922 191.948 83.1929 172.951C79.9935 157.753 78.5271 164.619 78.1938 169.951V192.947C72.5281 188.281 60.9968 176.35 60.1969 165.952C59.1971 152.954 59.1971 149.955 52.1983 165.952C45.1996 181.949 48.199 139.957 52.1983 126.959C56.1976 113.961 124.186 40.9739 149.181 38.9742C149.181 38.9742 146.182 37.6411 132.184 37.9744C137.517 33.9751 149.581 26.3765 155.18 27.9762C160.779 29.5759 158.18 19.9776 156.18 14.9785C160.179 18.6445 169.778 26.1765 176.177 26.9764C182.576 27.7762 210.171 25.9765 223.168 24.9767L252.163 38.9742" stroke="black"/>
</g>
<rect x="232.71" y="25.7401" width="33.9941" height="42.2306" transform="rotate(2.0938 232.71 25.7401)" fill="#C1C0BD"/>
<rect x="422.602" y="43.9734" width="3.9993" height="34.6245" transform="rotate(47.343 422.602 43.9734)" fill="#C1C0BD"/>
<rect x="405.734" y="62.2747" width="3.9993" height="9.45634" transform="rotate(65.8405 405.734 62.2747)" fill="#C1C0BD"/>
<rect x="429.627" y="41.1855" width="3.9993" height="34.3966" transform="rotate(47.343 429.627 41.1855)" fill="#C1C0BD"/>
<path d="M302.946 285.977C257.374 309.782 229.991 270.107 221.996 247.294C219.998 245.971 216 244.517 216 249.278M302.946 285.977V271.099M302.946 285.977C317.603 298.21 354.714 312.757 385.894 273.082C387.893 272.091 391.691 271.495 390.891 277.05" stroke="black" stroke-width="2" stroke-linecap="round"/>
<path d="M338.046 228.73C330.011 219.941 299.212 220.407 284.816 221.739C279.795 222.738 276.38 230.727 278.79 234.722C281.803 239.715 278.79 247.704 293.855 249.702C294.86 247.704 297.873 251.699 293.855 253.696L282.808 254.695C284.816 263.683 300.886 269.675 305.907 270.674C323.985 272.671 332.69 265.015 336.037 260.687C333.024 261.02 326.195 260.887 322.981 257.691C319.767 254.495 322.311 251.699 323.985 250.7C324.655 253.696 328.003 258.49 336.037 253.696C346.081 247.704 341.059 231.726 338.046 228.73Z" fill="black"/>
<mask id="mask4_16_383" style="mask-type:alpha" maskUnits="userSpaceOnUse" x="216" y="245" width="176" height="102">
<path d="M303.154 285.931C257.562 309.927 230.167 269.934 222.169 246.938C220.169 245.605 216.17 244.138 216.17 248.938C233.167 281.598 268.96 346.92 276.159 346.92C285.158 346.92 328.15 346.92 333.149 335.922C337.149 327.124 344.147 312.926 347.147 306.927L391.139 276.933C391.939 271.334 388.14 271.933 386.14 272.933C354.945 312.926 317.819 298.262 303.154 285.931Z" fill="#D9D9D9"/>
</mask>
<g mask="url(#mask4_16_383)">
<path d="M297.155 339.922C260.362 342.321 258.496 294.93 262.162 270.934L297.155 272.433L332.149 273.933C335.815 294.93 333.949 337.522 297.155 339.922Z" fill="#FE9598"/>
<path d="M297.155 272.433L332.149 273.933C335.815 294.93 333.949 337.522 297.155 339.922C260.362 342.321 258.496 294.93 262.162 270.934L297.155 272.433ZM297.155 272.433V312.926" stroke="black" stroke-width="2" stroke-linecap="round"/>
</g>
<mask id="mask5_16_383" style="mask-type:alpha" maskUnits="userSpaceOnUse" x="216" y="148" width="50" height="49">
<path d="M265.161 174.95C265.161 193.173 255.97 196.947 242.165 196.947C228.36 196.947 216.17 193.173 216.17 174.95C216.17 156.728 228.36 148.955 242.165 148.955C255.97 148.955 265.161 156.728 265.161 174.95Z" fill="white"/>
</mask>
<g mask="url(#mask5_16_383)">
<path d="M265.161 174.95C265.161 193.173 255.97 196.947 242.165 196.947C228.36 196.947 216.17 193.173 216.17 174.95C216.17 156.728 228.36 148.955 242.165 148.955C255.97 148.955 265.161 156.728 265.161 174.95Z" fill="white"/>
<circle cx="243.165" cy="173.951" r="23.9958" fill="#6F3A01"/>
<path d="M251.164 176.95C251.164 183.024 246.24 187.948 240.165 187.948C234.091 187.948 229.167 183.024 229.167 176.95C229.167 170.876 234.091 165.952 240.165 165.952C246.24 165.952 251.164 170.876 251.164 176.95Z" fill="black"/>
<circle cx="240.165" cy="168.952" r="0.999825" fill="white"/>
</g>
<mask id="mask6_16_383" style="mask-type:alpha" maskUnits="userSpaceOnUse" x="359" y="167" width="51" height="47">
<ellipse cx="384.14" cy="190.948" rx="24.9956" ry="22.996" fill="white"/>
</mask>
<g mask="url(#mask6_16_383)">
<ellipse cx="384.14" cy="190.948" rx="24.9956" ry="22.996" fill="white"/>
<ellipse cx="383.14" cy="190.948" rx="21.9962" ry="24.9956" fill="#00D0FF"/>
<circle cx="382.141" cy="192.947" r="10.9981" fill="black"/>
<circle cx="384.14" cy="184.949" r="0.999825" fill="white"/>
</g>
<path d="M191.194 371.822L157.18 479.897L226.209 450.993L246.218 371.822C247.885 366.795 250.62 354.731 248.219 346.688C245.818 338.645 238.548 340.823 235.213 342.918C226.409 333.87 217.539 339.148 214.204 342.918C215.205 336.635 195.196 340.405 191.194 346.688C187.993 351.715 189.861 365.538 191.194 371.822Z" fill="#C1C0BD" stroke="black"/>
<path d="M228.168 448.903L169.178 452.902L158.18 480.897L222.169 466.899L228.168 448.903Z" fill="#C1C0BD"/>
<ellipse cx="201.172" cy="353.919" rx="3.9993" ry="5.99895" fill="#FE9598"/>
<ellipse cx="222.446" cy="350.681" rx="3.9993" ry="5.99895" transform="rotate(13.3502 222.446 350.681)" fill="#FE9598"/>
<ellipse cx="240.443" cy="352.681" rx="3.9993" ry="5.99895" transform="rotate(13.3502 240.443 352.681)" fill="#FE9598"/>
<ellipse cx="217.169" cy="377.915" rx="13.9976" ry="13.9976" fill="#FE9598"/>
<path d="M409.913 564.558L443.926 456.488L374.9 485.39L354.893 564.558C353.225 569.584 350.491 581.648 352.892 589.69C355.293 597.733 362.562 595.554 365.897 593.46C374.7 602.508 383.57 597.23 386.905 593.46C385.904 599.743 405.912 595.973 409.913 589.69C413.115 584.664 411.247 570.841 409.913 564.558Z" fill="#C1C0BD" stroke="black"/>
<path d="M372.942 487.481L431.929 483.482L442.926 455.488L378.941 469.485L372.942 487.481Z" fill="#C1C0BD"/>
<line x1="408.639" y1="599.983" x2="422.022" y2="617.191" stroke="black" stroke-linecap="round"/>
<line x1="352.035" y1="598.597" x2="338.651" y2="615.805" stroke="black" stroke-linecap="round"/>
<line x1="376.39" y1="606.442" x2="374.49" y2="625.443" stroke="black" stroke-linecap="round"/>
</svg>
